<?xml version="1.0" ?><svg id="Layer_1" style="enable-background:new 0 0 512 512;" version="1.1" viewBox="0 0 512 512" xml:space="preserve" xmlns="http://www.w3.org/2000/svg" xmlns:xlink="http://www.w3.org/1999/xlink"><style type="text/css">
	.st0{fill:#25D366;}
	.st1{fill:#FFFFFF;}
	.st2{fill:#FF0000;}
	.st3{fill:#3D5A98;}
	.st4{fill:url(#SVGID_1_);}
	.st5{fill:url(#SVGID_2_);}
	.st6{fill:#55ADEE;}
	.st7{fill:#1E96C8;}
	.st8{fill:#A9C9DD;}
	.st9{fill:#C8DAEA;}
	.st10{fill:none;}
	.st11{fill:#4787F3;}
	.st12{fill:#DC483C;}
	.st13{fill:#FFCE43;}
	.st14{fill:#149F5C;}
	.st15{fill:#CE1E5B;}
	.st16{fill:#72C5CD;}
	.st17{fill:#DFA22F;}
	.st18{fill:#3CB187;}
	.st19{fill:#248C73;}
	.st20{fill:#392538;}
	.st21{fill:#BB242A;}
	.st22{fill:none;stroke:#3CB187;stroke-miterlimit:10;}
	.st23{fill:#009A57;}
	.st24{fill:#FCCD37;}
	.st25{fill:#2771F0;}
</style><g><path class="st1" d="M256,140.3c-63.8,0-115.7,51.9-115.7,115.7S192.2,371.7,256,371.7S371.7,319.8,371.7,256   S319.8,140.3,256,140.3z M256,349.8c-51.7,0-93.8-42.1-93.8-93.8s42.1-93.8,93.8-93.8s93.8,42.1,93.8,93.8S307.7,349.8,256,349.8z"/><g><path class="st10" d="M140.3,256c0,13.7,2.4,26.7,6.8,38.9c16,44.7,58.8,76.8,109,76.8c34.8,0,66.1-15.5,87.3-39.9    c17.7-20.3,28.4-46.8,28.4-75.8c0-57.2-41.8-104.9-96.4-114.1c-6.3-1.1-12.7-1.6-19.3-1.6C192.2,140.3,140.3,192.2,140.3,256z     M350.2,256c0,52-42.2,94.2-94.2,94.2c-52,0-94.2-42.2-94.2-94.2c0-52,42.2-94.2,94.2-94.2C308,161.8,350.2,204,350.2,256z"/><path class="st11" d="M252.9,161.9c-49.3,1.6-89.5,41.7-91.1,91.1c-1.7,54.5,42.8,99,97.2,97.2c49.3-1.6,89.5-41.7,91.1-91.1    C351.9,204.6,307.4,160.1,252.9,161.9z"/><path class="st12" d="M256,9C168.4,9,91.5,54.6,47.6,123.3l99.3,171.7l0.1-0.2c-4.4-12.2-6.8-25.3-6.8-38.9    c0-63.8,51.9-115.7,115.7-115.7c6.6,0,13,0.6,19.3,1.6h199.8C433.9,62.9,351.3,9,256,9z"/><path class="st13" d="M475.1,141.9H275.3c54.7,9.2,96.4,56.8,96.4,114.1c0,29-10.7,55.5-28.4,75.8l-99.9,170.9    c4.2,0.2,8.4,0.3,12.6,0.3c136.4,0,247-110.6,247-247C503,214.8,492.9,176,475.1,141.9z"/><path class="st14" d="M256,371.7c-50.2,0-92.9-32.1-109-76.8l-0.1,0.2L47.6,123.3C23.2,161.7,9,207.2,9,256    c0,132.2,103.8,240.1,234.4,246.7l99.9-170.9C322.1,356.2,290.8,371.7,256,371.7z"/></g></g></svg>