<?xml version="1.0" ?><!DOCTYPE svg  PUBLIC '-//W3C//DTD SVG 1.1//EN'  'http://www.w3.org/Graphics/SVG/1.1/DTD/svg11.dtd'><svg enable-background="new 0 0 128 128" id="Social_Icons" version="1.1" viewBox="0 0 128 128" xml:space="preserve" xmlns="http://www.w3.org/2000/svg" xmlns:xlink="http://www.w3.org/1999/xlink"><g id="_x33__stroke"><g id="Internet_Explorer_1_"><rect clip-rule="evenodd" fill="none" fill-rule="evenodd" height="128" width="128"/><path clip-rule="evenodd" d="M70.699,35.433    c14.086,0,23.477,10.993,23.827,21.899H46.581C47.048,48.051,55.651,35.433,70.699,35.433z M70.699,98.55    c-14.087,0-24.119-12.212-24.468-24.626h81.659c1.247-26.735-8-45.696-31.687-58.922c3.461-3.786,31.812-13.748,24.556,13.329    l2.786,4.028C135.844-4.899,98.905-2.873,74.462,8.951C39.231,8.835,19.283,30.88,13.801,53.504    c9.524-13.6,21.835-21.66,29.863-23.901c-45.949,36.753-67.3,117.813-4.899,92.123l-4.331-2.596    c-37.552,11.779-23.043-21.511-15.816-26.312c8.651,17.599,27.083,31.664,49.631,31.664c28.697,0,50.016-14.739,58.474-39.187    h-33.13C88.81,93.769,82.161,98.55,70.699,98.55z" fill="#00BBF5" fill-rule="evenodd" id="Internet_Explorer"/></g></g></svg>