<?xml version="1.0" ?><!DOCTYPE svg  PUBLIC '-//W3C//DTD SVG 1.1//EN'  'http://www.w3.org/Graphics/SVG/1.1/DTD/svg11.dtd'><svg height="512px" style="enable-background:new 0 0 512 512;" version="1.1" viewBox="0 0 512 512" width="512px" xml:space="preserve" xmlns="http://www.w3.org/2000/svg" xmlns:xlink="http://www.w3.org/1999/xlink"><g id="_x32_41-opera"><g><path d="M395.324,442.491c-44.584,25.255-110.89,29.072-155.909-0.991    c61.263-20.96,118.52-98.601,118.52-185.513c0-86.606-55.755-164.72-117.02-185.987c45.563-29.858,110.263-25.567,155.72,0.302    C512.072,171.223,511.637,341.977,395.324,442.491z" style="fill:#D12828;"/><path d="M320.215,56.338c-157.838,0-234.254,207.544-136.787,329.309    c33.849,42.104,82.166,70.107,136.787,70.107c33.662,0,65.193-10.293,92.18-28.189c-40.619,36.352-94.5,58.424-153.294,58.424    c-3.616,0-7.418,0-11.035-0.278C126.116,480.053,29.113,379.434,29.113,256c0-127.05,102.938-229.988,229.987-229.988h0.743    c58.516,0.278,111.932,22.35,152.459,58.517C385.408,66.539,353.783,56.338,320.215,56.338L320.215,56.338z" style="fill:#FF1B2D;"/></g></g><g id="Layer_1"/></svg>