<svg xmlns="http://www.w3.org/2000/svg" width="800.458" height="507.92" viewBox="0 0 800.458 507.92">
  <g id="Group_1" data-name="Group 1" transform="translate(-936.573 2045.789)">
    <path id="Path_1" data-name="Path 1" d="M1304.461-1596.955s278.6,132.513,396.571-183.512" transform="translate(-273.089 -186.718)" fill="none" stroke="rgba(255,255,255,0.15)" stroke-width="2"/>
    <path id="Path_2" data-name="Path 2" d="M0,257.915S288.409,315.43,522.131,0" transform="matrix(0.995, -0.105, 0.105, 0.995, 992.359, -1912.607)" fill="none" stroke="rgba(255,255,255,0.22)" stroke-width="2"/>
    <path id="Path_3" data-name="Path 3" d="M1479.54-1507.777s106.447-174.416,343.624-177.094" transform="translate(-86.308 -30.613)" fill="none" stroke="rgba(255,255,255,0.17)" stroke-width="2"/>
    <path id="Path_4" data-name="Path 4" d="M1419.761-1479.515s120.9-203.133,472.2-265.45" transform="translate(-155.107 -69.563)" fill="none" stroke="rgba(255,255,255,0.2)" stroke-width="2"/>
    <path id="Path_5" data-name="Path 5" d="M1382.453-1422.565s391.8-403.881,571.051-386.513" transform="translate(-216.647 -126.513)" fill="none" stroke="rgba(255,255,255,0.2)" stroke-width="2"/>
    <path id="Path_6" data-name="Path 6" d="M15.815,0s-95.93,298.955,184.743,232.757" transform="matrix(-0.174, -0.985, 0.985, -0.174, 971.74, -1805.794)" fill="none" stroke="rgba(255,255,255,0.24)" stroke-width="2"/>
  </g>
</svg>
