<?xml version="1.0" encoding="iso-8859-1"?>
<!-- Generator: Adobe Illustrator 19.0.0, SVG Export Plug-In . SVG Version: 6.00 Build 0)  -->
<svg version="1.1" id="Capa_1" xmlns="http://www.w3.org/2000/svg" xmlns:xlink="http://www.w3.org/1999/xlink" x="0px" y="0px"
	 viewBox="0 0 512 512" style="enable-background:new 0 0 512 512;" xml:space="preserve">
<path style="fill:#FFD89D;" d="M286,119.997V150c0,16.569-13.431,30-30,30l-15-60.003H286z"/>
<path style="fill:#FFEBCE;" d="M226,119.997V150c0,16.569,13.431,30,30,30v-60.003H226z"/>
<path style="fill:#FF903D;" d="M256,180L127.35,346L256,512c91.533,0,166-74.467,166-166S347.533,180,256,180z"/>
<g>
	<path style="fill:#FFB03B;" d="M90,346c0,91.533,74.467,166,166,166V180C164.467,180,90,254.467,90,346z"/>
	<path style="fill:#FFB03B;" d="M256,220l-97.65,126L256,472c69.477,0,126-56.523,126-126S325.477,220,256,220z"/>
</g>
<g>
	<path style="fill:#FFD89D;" d="M130,346c0,69.477,56.523,126,126,126V220C186.523,220,130,276.523,130,346z"/>
	<polygon style="fill:#FFD89D;" points="375.833,307.064 284.289,307.064 256,220 237.228,333.872 256,394.128 330.061,447.936 
		301.772,360.872 	"/>
</g>
<polygon style="fill:#FFFFFF;" points="227.711,307.064 136.167,307.064 210.228,360.872 181.939,447.936 256,394.128 256,220 "/>
<polygon style="fill:#6C3BEB;" points="353.213,0 308.213,75 353.213,150 422,81.213 422,0 "/>
<polygon style="fill:#FFD89D;" points="323.213,0 278.213,75 323.213,150 353.213,150 353.213,0 "/>
<polygon style="fill:#FF415D;" points="256,0 211,75 256,150 323.213,150 323.213,0 "/>
<polygon style="fill:#6C3BEB;" points="158.787,0 203.787,75 158.787,150 90,81.213 90,0 "/>
<polygon style="fill:#FFEBCE;" points="188.787,0 233.787,75 188.787,150 158.787,150 158.787,0 "/>
<rect x="188.79" style="fill:#FF7472;" width="67.21" height="150"/>
<g>
</g>
<g>
</g>
<g>
</g>
<g>
</g>
<g>
</g>
<g>
</g>
<g>
</g>
<g>
</g>
<g>
</g>
<g>
</g>
<g>
</g>
<g>
</g>
<g>
</g>
<g>
</g>
<g>
</g>
</svg>
