<?xml version="1.0" encoding="utf-8"?>
<!-- Generator: Adobe Illustrator 24.0.0, SVG Export Plug-In . SVG Version: 6.00 Build 0)  -->
<svg version="1.1" id="Layer_1" xmlns="http://www.w3.org/2000/svg" xmlns:xlink="http://www.w3.org/1999/xlink" x="0px" y="0px"
	 viewBox="0 0 59.08 8.53" style="enable-background:new 0 0 59.08 8.53;" xml:space="preserve">
<g>
	<path d="M51.06,8.53c-2.12,0-3.21-0.99-4.16-1.86c-0.86-0.79-1.54-1.41-3-1.41s-2.14,0.62-3,1.41c-0.95,0.87-2.04,1.86-4.16,1.86
		c-2.12,0-3.21-0.99-4.16-1.86c-0.86-0.79-1.54-1.41-3-1.41c-1.46,0-2.14,0.62-3,1.41c-0.95,0.87-2.04,1.86-4.16,1.86
		c-2.12,0-3.21-0.99-4.16-1.86c-0.86-0.79-1.54-1.41-3-1.41c-1.46,0-2.14,0.62-3,1.41c-0.95,0.87-2.04,1.86-4.16,1.86
		c-2.12,0-3.21-0.99-4.16-1.86c-0.86-0.79-1.54-1.41-3-1.41c-0.48,0-0.86-0.39-0.86-0.86c0-0.48,0.39-0.86,0.86-0.86
		c2.12,0,3.21,0.99,4.16,1.86c0.86,0.79,1.54,1.41,3,1.41c1.46,0,2.14-0.62,3-1.41c0.95-0.87,2.04-1.86,4.16-1.86
		c2.12,0,3.21,0.99,4.16,1.86c0.86,0.79,1.54,1.41,3,1.41c1.46,0,2.14-0.62,3-1.41c0.95-0.87,2.04-1.86,4.16-1.86
		c2.12,0,3.21,0.99,4.16,1.86c0.86,0.79,1.54,1.41,3,1.41c1.46,0,2.14-0.62,3-1.41c0.95-0.87,2.04-1.86,4.16-1.86
		s3.21,0.99,4.16,1.86c0.86,0.79,1.54,1.41,3,1.41c1.46,0,2.14-0.62,3-1.41c0.95-0.87,2.04-1.86,4.16-1.86
		c0.48,0,0.86,0.39,0.86,0.86c0,0.48-0.39,0.86-0.86,0.86c-1.46,0-2.14,0.62-3,1.41C54.27,7.54,53.18,8.53,51.06,8.53z"/>
</g>
<g>
	<path d="M50.98,5c-2.12,0-3.21-0.99-4.16-1.86c-0.86-0.79-1.54-1.41-3-1.41s-2.14,0.62-3,1.41C39.86,4.01,38.78,5,36.66,5
		s-3.21-0.99-4.16-1.86c-0.86-0.79-1.54-1.41-3-1.41c-1.46,0-2.14,0.62-3,1.41C25.55,4.01,24.46,5,22.34,5
		c-2.12,0-3.21-0.99-4.16-1.86c-0.86-0.79-1.54-1.41-3-1.41c-1.46,0-2.14,0.62-3,1.41C11.23,4.01,10.15,5,8.02,5
		C5.9,5,4.81,4.01,3.86,3.14C3,2.35,2.32,1.72,0.86,1.72C0.39,1.72,0,1.34,0,0.86C0,0.39,0.39,0,0.86,0c2.12,0,3.21,0.99,4.16,1.86
		c0.86,0.79,1.54,1.41,3,1.41c1.46,0,2.14-0.62,3-1.41C11.97,0.99,13.06,0,15.18,0c2.12,0,3.21,0.99,4.16,1.86
		c0.86,0.79,1.54,1.41,3,1.41c1.46,0,2.14-0.62,3-1.41C26.29,0.99,27.37,0,29.5,0c2.12,0,3.21,0.99,4.16,1.86
		c0.86,0.79,1.54,1.41,3,1.41c1.46,0,2.14-0.62,3-1.41C40.61,0.99,41.69,0,43.82,0s3.21,0.99,4.16,1.86c0.86,0.79,1.54,1.41,3,1.41
		c1.46,0,2.14-0.62,3-1.41C54.93,0.99,56.01,0,58.14,0C58.61,0,59,0.39,59,0.86c0,0.48-0.39,0.86-0.86,0.86
		c-1.46,0-2.14,0.62-3,1.41C54.18,4.01,53.1,5,50.98,5z"/>
</g>
<g>
</g>
<g>
</g>
<g>
</g>
<g>
</g>
<g>
</g>
<g>
</g>
<g>
</g>
<g>
</g>
<g>
</g>
<g>
</g>
<g>
</g>
<g>
</g>
<g>
</g>
<g>
</g>
<g>
</g>
</svg>
