<svg data-name="Layer 1" xmlns="http://www.w3.org/2000/svg" xmlns:xlink="http://www.w3.org/1999/xlink" width="1084.99" height="822.75"><defs><linearGradient id="a" x1="609.82" y1="674.04" x2="609.82" y2="135.71" gradientUnits="userSpaceOnUse"><stop offset="0" stop-color="gray" stop-opacity=".25"/><stop offset=".54" stop-color="gray" stop-opacity=".12"/><stop offset="1" stop-color="gray" stop-opacity=".1"/></linearGradient><linearGradient id="b" x1="629.86" y1="815.18" x2="629.86" y2="282.75" gradientTransform="rotate(-2.2 543.969 553.846)" xlink:href="#a"/></defs><path d="M214.14 8.38s-3.77 14.71 22.58 56.29 24.52 47.47 23 59.36-1.43 18.4-16.74 33c0 0-45.87 15.06-52 24.45s10.13 43.53 10.13 43.53 15.62 41.47-40.47 57.38c0 0-43.89.06-56.06 9.73 0 0 4.71-16.83-9.93-41.58s5.53-48.88 5.53-48.88 16.24-8.94 26.55-9.63 13.58-5.41 6.95-17.26c0 0-9.59-5-22.87 5.71s-23.2 18.34-34.77 17.44-28.07-5.78-38.9-27.19-16.53-51.68-24.64-65.5S0 88.38 0 88.38s10.25 7.78 45.64-18.63S99.5 54.64 99.5 54.64s28.44 7.64 33 57.79c0 0 8.27 47.79 25.08 18.84 0 0-5.69-16.3-17.06-40.3s19.06-46.59 41.34-54.15 32.28-28.44 32.28-28.44z" fill="#5369f8"/><path d="M30.99 98.97l-.1-.25c7-2.92 39.29 14.57 65.11 29.76l-.14.23C59.44 107.29 36.4 96.73 30.99 98.97z" fill="#444053"/><path d="M95.33 128.38l.28-.15c20.62 12.15 45.36 27.57 63.89 40.09 1.76 1.19 3.59 2.37 5.46 3.48l-.29.47c-1.87-1.12-3.71-2.3-5.48-3.5-18.51-12.51-43.25-28.25-63.86-40.39z" fill="#444053"/><path d="M164.13 171.97l.46-.36c37.17 22.31 89.46 17 89.92 17l-5.77 6.55c-.46.03-47.18-.73-84.61-23.19z" fill="#444053"/><path d="M200.18 41.99s-12.17 33.89-2.92 57.77-10 83.05-10 83.05-6.39 24.89-16.67 31.11c0 0-14.91 18.51-23.65 20.63s-28.84 20.9-28.31 31.29m98.01-221.46s-8.58 17.4-21.35 17.25M233.84 67s-5.19 23.93-37.34 30.62m50.73 5.04s-15.13 24.24-47.73 21.29m44.9 24.12s-28.47 18.65-50 8.41m-14.34-112.1s7.44 15.74 15.67 11m-42.91 12.91s10 21.12 41.29 17.41m-44.31 14.35s27.52 16.72 49.84 12.19m-35.35 21.66s21.78 17.37 32 13.38m-37.1-.43s5.89 18.25.1 21.7m-19.39 5.67s11.23-11.15 8.1-13.2M119.27 81.6s9.83 46.69-2.94 59.29m-38.16 51.8s44.49-28.57 48.37-45.45M52.4 172.55s41.85-19.51 53.2-38.2" fill="none" stroke="#444053" stroke-miterlimit="10"/><path d="M80.5 66.64s20.25 33.78 7.6 57.42m-49.35 17.81s31-12.55 37.27-24.64M45.29 76.94s10.37 19.12 5.54 27.43" fill="none" stroke="#444053" stroke-miterlimit="10" stroke-width=".75"/><path d="M152.73 190.06s28-3.75 31 3.56m13.77 53.82s-1.51-30.62-19-42.46m-57.78-2.6s29.39 3.47 39.78 22.64m9.51 44.63s4.54-22.43-16.93-38.29m-53.53-1.88s24.38-1.25 37.44 10.34m-3.84 34s-2.28-17.8-8.64-21.17" fill="none" stroke="#444053" stroke-miterlimit="10"/><path d="M511.29 197.38c-54.87 27.61-114.88 39.65-173.39 48.93s-117.57 16.43-175.23 35.83c-37.08 12.48-76.27 32.69-94.55 64.09-17.62 30.15-11.11 62.3-1.79 90.32 7 21.07 16 42.39 35.16 55.27 13.32 8.94 30.61 13.13 45.13 20.74 50.51 26.45 58.7 88.49 50.56 145.56-3.82 26.77-10.38 53.89-10.29 80.13s7.66 52.24 28.48 67.74c20.64 15.36 51.63 18.48 82 16 61.71-5 123.76-30.59 182.86-58.09 130.86-60.87 256.21-133.44 381.27-205.83 46.26-26.79 92.73-53.71 135.32-85.44 23.65-17.62 47-37.86 57.92-62.08 13.91-30.74 3.3-64.23-24.74-78.06-47-23.2-125.58 7.39-166.11-22.91-22.39-16.68-25.31-47.2-21.66-75.85 7.82-61.56 40.14-129.41 15.47-181.5C840.76 16.45 796.18-4.37 747.5.78c-51 5.4-107.52 38.93-122.72 84.13-15.62 46.55-65.04 88.04-113.49 112.47z" fill="#5369f8" opacity=".1"/><ellipse cx="642.84" cy="761.32" rx="100.11" ry="24.73" fill="#5369f8" opacity=".1"/><rect x="134.66" y="135.71" width="950.33" height="538.33" rx="12.49" ry="12.49" fill="url(#a)"/><rect x="136.17" y="143.28" width="947.42" height="528.97" rx="12.49" ry="12.49" fill="#fff"/><rect x="136.17" y="143.28" width="947.42" height="528.97" rx="12.49" ry="12.49" fill="#fff"/><rect x="136.17" y="143.28" width="947.42" height="528.97" rx="12.49" ry="12.49" fill="#5a5773" opacity=".04"/><path d="M1078.79 137.21h-937.8a4.81 4.81 0 00-4.81 4.81v20.36h947.42v-20.36a4.81 4.81 0 00-4.81-4.81z" fill="#5a5773"/><g data-name="buttons" fill="#fff"><circle cx="155.09" cy="149.78" r="6.5"/><circle cx="172.59" cy="149.78" r="6.5"/><circle cx="190.09" cy="149.78" r="6.5"/></g><rect x="199.59" y="279.47" width="790" height="304" rx="10.19" ry="10.19" fill="#5369f8" opacity=".1"/><rect x="272.39" y="298.35" width="790" height="304" rx="10.19" ry="10.19" transform="rotate(1.46 2152.627 -1826.946)" fill="#fff"/><path fill="#f4f4f7" stroke="#5a5773" stroke-miterlimit="10" opacity=".2" d="M337.02 314.26l550.32 13.99m-551.41 29l550.32 13.99m-551.41 28.99l550.32 13.99m-551.42 29l550.33 13.99"/><path fill="none" stroke="#5a5773" stroke-miterlimit="10" stroke-dasharray="12" opacity=".2" d="M383.76 432.82l-1.39 54.65"/><path fill="#f4f4f7" stroke="#5a5773" stroke-miterlimit="10" opacity=".2" d="M332.65 486.21l550.32 13.98"/><path fill="none" stroke="#5a5773" stroke-miterlimit="10" stroke-dasharray="12" opacity=".2" d="M444.61 489.05l2.07-81.47"/><path d="M808.66 401.14c-9.81.85-19.39-4.65-25.26-10.43-6.08-6-10.49-13.38-14.75-20.56a380.53 380.53 0 00-4.16-6.87c-7.43-11.78-14.85-19.7-23.34-24.93a44.44 44.44 0 00-9.93-4.54 7 7 0 01-1.41 2.14 7 7 0 01-4.9 2.15h-.33a7 7 0 01-6.75-6.07 30.45 30.45 0 00-9.21 1.89c-8.73 3.29-15.36 10.36-21.39 17.33-7.3 8.42-14.34 17.25-20.9 26.26q-2 2.73-4 5.49c-7.12 9.94-14.48 20.21-24 28.24-12.78 10.84-28.15 15.51-41.12 12.5-15.56-3.61-26.69-17.36-34.64-28.94-1-1.5-2-3-3.08-4.53-7.42-11-15.09-22.37-26.41-29-14.91-8.75-35.5-7.24-49 3.57-6.58 5.27-11.52 12.43-16.31 19.35-1.64 2.38-3.34 4.84-5.09 7.2-9 12.09-18.07 18.65-27.85 20.07a52.94 52.94 0 01-11.67 0c-2.58-.18-5.25-.38-7.86-.31a37.79 37.79 0 00-31.57 19.67l-1.38 57.56 432.31 11 2.42-95.23a6 6 0 01-8.42-3z" fill="#5369f8" opacity=".2"/><path fill="none" stroke="#5a5773" stroke-miterlimit="10" stroke-dasharray="12" opacity=".2" d="M511.95 355.58l-3.43 135.1m63.72-83.41l-2.16 84.97m62.12-75l-1.94 76.53m60.13-145.02l-3.72 146.45m62.94-151.56l-3.89 153.07m69.48-95.52l-2.48 97.22"/><path d="M730.62 327.06a7 7 0 00-5-1.95 7 7 0 00-6.79 5.93 6.79 6.79 0 00-.08 1.2c0 .27 0 .54.06.8a7 7 0 002.09 4.11 6.87 6.87 0 004.66 2h.33a7 7 0 004.91-2.14 7.17 7.17 0 001.41-2.14 6.91 6.91 0 00.5-1.95 5.55 5.55 0 000-.91 7 7 0 00-2.09-4.95zm-.35 7.2a4.54 4.54 0 01-.91 1.31 5 5 0 01-8.51-2.58 4.16 4.16 0 01-.09-.79 4.8 4.8 0 01.12-1.2 5 5 0 014.78-3.9h.23a5 5 0 014.87 4.89v.31a4.65 4.65 0 01-.49 1.96z" fill="#5369f8"/><circle cx="815.26" cy="399.88" r="6" fill="#5369f8"/><path d="M720.76 332.2a4.16 4.16 0 00.09.79c-.68 0-1.36 0-2 .05a30.58 30.58 0 00-9.22 1.89c-8.73 3.29-15.36 10.36-21.4 17.33-7.3 8.41-14.34 17.25-20.91 26.25-1.33 1.82-2.64 3.66-4 5.5-7.13 9.94-14.49 20.2-24 28.24-12.79 10.83-28.17 15.5-41.15 12.49-15.54-3.6-26.67-17.36-34.67-28.94-1-1.49-2.06-3-3.08-4.53-7.43-11-15.11-22.37-26.43-29-14.91-8.75-35.52-7.24-49 3.57-6.49 5.26-11.49 12.42-16.28 19.34-1.65 2.38-3.35 4.85-5.1 7.2-9 12.09-18.08 18.65-27.86 20.07a53.57 53.57 0 01-11.67 0 76.47 76.47 0 00-7.87-.31 37.72 37.72 0 00-32.79 22.12l-1.84-.8a39.8 39.8 0 0134.57-23.32 74.56 74.56 0 018.08.32 52.05 52.05 0 0011.23 0c9.23-1.33 17.91-7.64 26.54-19.28 1.73-2.33 3.42-4.78 5.06-7.15 4.87-7 9.91-14.31 16.71-19.77a46.11 46.11 0 0151.26-3.73c11.72 6.87 19.53 18.43 27.09 29.62 1 1.5 2 3 3.07 4.51 7.75 11.28 18.55 24.67 33.46 28.12 12.36 2.87 27.09-1.64 39.4-12.07 9.29-7.87 16.6-18 23.65-27.88 1.31-1.84 2.64-3.68 4-5.51 6.61-9 13.68-17.92 21-26.39 6.21-7.16 13-14.43 22.21-17.88a32.75 32.75 0 019.94-2c.67 0 1.36-.06 2 0a4.8 4.8 0 00-.09 1.15zm94.85 68.62c-11.73 4.38-24.13-2.16-31.19-9.1-6.08-6-10.49-13.39-14.75-20.57-1.35-2.26-2.75-4.61-4.17-6.86-7.43-11.79-14.85-19.71-23.35-24.94a44.6 44.6 0 00-9.93-4.53c-.64-.21-1.29-.39-2-.56a4.65 4.65 0 00.49-1.95c.66.17 1.31.36 2 .56a46.34 46.34 0 0110.47 4.78c8.78 5.39 16.4 13.51 24 25.57 1.43 2.28 2.83 4.63 4.2 6.92 4.2 7.06 8.54 14.37 14.43 20.15 6.63 6.52 18.24 12.71 29.09 8.66z" fill="#5369f8"/><rect x="394.64" y="344.15" width="20.4" height="9" rx=".9" ry=".9" transform="rotate(1.46 1890.733 -1928.008)" fill="#5369f8" opacity=".5"/><rect x="393.54" y="387.13" width="20.4" height="9" rx=".9" ry=".9" transform="rotate(1.46 1889.709 -1885.215)" fill="#5369f8"/><rect x="392.45" y="430.12" width="20.4" height="9" rx=".9" ry=".9" transform="rotate(1.46 1888.291 -1842.417)" fill="#5369f8" opacity=".5"/><rect x="391.36" y="473.1" width="20.4" height="9" rx=".9" ry=".9" transform="rotate(1.46 1887.267 -1799.623)" fill="#5369f8" opacity=".5"/><rect x="390.27" y="516.09" width="20.4" height="9" rx=".9" ry=".9" transform="rotate(1.46 1886.242 -1756.83)" fill="#5369f8" opacity=".5"/><rect x="428.1" y="535.06" width="20.4" height="9" rx=".9" ry=".9" transform="rotate(1.46 1924.164 -1737.69)" fill="#5369f8" opacity=".5"/><rect x="491.58" y="536.67" width="20.4" height="9" rx=".9" ry=".9" transform="rotate(1.46 1987.373 -1736.14)" fill="#5369f8" opacity=".5"/><rect x="555.48" y="538.29" width="20.4" height="9" rx=".9" ry=".9" transform="translate(-43.53 -52.82)" fill="#5369f8"/><rect x="617.05" y="539.86" width="20.4" height="9" rx=".9" ry=".9" transform="rotate(1.46 2112.614 -1733.026)" fill="#5369f8" opacity=".5"/><rect x="677.22" y="541.39" width="20.4" height="9" rx=".9" ry=".9" transform="rotate(1.46 2172.29 -1731.431)" fill="#5369f8" opacity=".5"/><rect x="733.63" y="542.82" width="20.4" height="9" rx=".9" ry=".9" transform="rotate(1.46 2228.824 -1730.19)" fill="#5369f8"/><rect x="793.1" y="544.33" width="20.4" height="9" rx=".9" ry=".9" transform="rotate(1.46 2288.108 -1728.59)" fill="#5369f8"/><rect x="859.69" y="546.03" width="20.4" height="9" rx="1.39" ry="1.39" transform="translate(-43.23 -60.55)" fill="#5369f8"/><path d="M980.87 605.49a9.9 9.9 0 11-7 2.9 9.85 9.85 0 017-2.9m0-1.54a11.45 11.45 0 1011.45 11.43 11.44 11.44 0 00-11.45-11.43z" fill="#5369f8"/><path d="M977.8 618.76l.6-.8a3.18 3.18 0 002.19.91c1 0 1.79-.51 1.79-1.32s-.73-1.46-2.75-1.46v-.92c1.8 0 2.48-.6 2.48-1.38s-.61-1.15-1.5-1.15a2.93 2.93 0 00-1.89.77l-.64-.77a4 4 0 012.58-1c1.55 0 2.7.75 2.7 2.06 0 .92-.67 1.53-1.65 1.86v.05a2.15 2.15 0 011.92 2c0 1.42-1.34 2.28-2.94 2.28a3.87 3.87 0 01-2.89-1.13z" fill="#5369f8"/><path d="M1028.16 606.16a9.9 9.9 0 11-7 2.9 9.84 9.84 0 017-2.9m0-1.54a11.45 11.45 0 1011.45 11.45 11.44 11.44 0 00-11.45-11.45z" fill="#5a5773"/><path d="M1028.31 614.87c0-.49 0-1.11.07-1.6h-.07c-.28.43-.6.86-.88 1.29l-2 2.61h5.41v1.05h-6.81v-.84l4.06-5.34h1.49v8.5h-1.24zm-26.24-5.34a1.05 1.05 0 011.47 0l5.16 5.18a1 1 0 010 1.44l-5.08 5.1a1 1 0 01-1.48 0 1 1 0 010-1.47l4.36-4.4-4.43-4.38a1 1 0 010-1.48z" fill="#5a5773"/><path d="M993.27 615.38a11.25 11.25 0 1011.23-11.23 11.24 11.24 0 00-11.23 11.23zm1.73 0a9.53 9.53 0 112.79 6.72 9.42 9.42 0 01-2.79-6.72z" fill="#5a5773"/><rect x="166.09" y="189.05" width="227.24" height="23.85" rx="3.86" ry="3.86" fill="#5a5773" opacity=".2"/><path d="M764.69 795.76c-1.66-6-2.74-11.3-2.74-11.3s.07-6.6-3.08-11.45l-.06-1.65-.47-12.2a41.53 41.53 0 012.83-6.51c2.06-3.92-.68-17.88-.68-17.88s-8.91-19.49-7.41-32.13-18.86-55.15-18.86-55.15a54.52 54.52 0 011.28-12.41 10.15 10.15 0 00.14-2.6v-.32.1c-.59-8.27-7.74-23.55-7.74-23.55l-.26-29.63s3.51-17.62-4.22-40.78c-2.69-8.08-4.47-14.56-5.63-19.58-.13-.56-.26-1.11-.37-1.63 14-2.69 24.61-4.88 24.61-4.88s-9.45-33.75-15.18-39.5S716 448.4 716 448.4s-3.79-23.95.56-31.16 4.55-19.36 4.55-19.36 10.26-8.08 11.45-11.53 3.09-11.21 2.94-15.26-1.62-7.61-1.26-9.76-3.47-10.1-1.86-14a10.56 10.56 0 00.56-3.72v-.16a51.94 51.94 0 00-1.31-9.95 28.26 28.26 0 00-10.66-5.19l-.27-.9-.7-2.41c-.36-.22-.71-.41-1.06-.58l-.06-.87-.23-3.45 1.35-7.8c2.72-13.65-15.39-15-15.39-15a9.45 9.45 0 00-5.29-4.28c-3.68-1.14.18 20.36 1.93 21.67 1.31 1 5.52 7.62 7.55 10.88l.32.53a9.42 9.42 0 00-.79.9l.87 4.67.13.71a19.72 19.72 0 00-2.69 5s3.44 3.5 2.94 7.57 1.36 9.05 1.45 9.32c-.2-.22-2.62-2.64-4.91-1.94s-8.7 2.89-8.7 2.89-4.81 1-4.33 2.09-3.08 5.88-3.08 5.88l-13.48-11.83c-.14-.36-.29-.72-.42-1.1a30.33 30.33 0 01-1.34-5.35 30.6 30.6 0 004.11-1.49 9 9 0 003.51-2.44c1.25-1.61 1.42-3.73 1.88-5.69.88-3.82 3-7.28 4.41-10.94a35.07 35.07 0 001.84-19.35 12.83 12.83 0 00-2.21-5.58c-2.24-2.84-6.13-3.88-9-6.1s-4.84-5.71-8.17-7.34c-3-1.46-6.6-1.14-9.9-.46a53.1 53.1 0 00-18.24 7.39c-1.85 1.19-3.88 2.57-6.08 2.26-1.88-.27-3.31-1.71-4.57-3.09 0-.06 0-.12.05-.18l-.15-.17a22.91 22.91 0 00-1.64 9.81q0 .78.12 1.56c0 .18 0 .36.05.54a3.38 3.38 0 010 .45 2.7 2.7 0 01-.07.69 5.06 5.06 0 01-1.15 1.81 10.42 10.42 0 00-1 1.48c0-.18.1-.36.16-.53a7.68 7.68 0 00-1.19 4.15 4.07 4.07 0 001.09 2.89 14.15 14.15 0 002.19 1.63 24.12 24.12 0 00-.22 4.35 25.12 25.12 0 0013.08 21l.48 1.1c1.83 4.31 3.28 9.36 2.91 14.09 0 .35-.07.69-.12 1-.16.18-.31.37-.45.56s-21.47 1-26.7-3.35-12.33 11.67-12.33 11.67-7.64 1.79-9.23.36-10.57.19-10.57.19a19.45 19.45 0 00-13.61-4.38 39.64 39.64 0 00-10.05-5.1l-.24-.08a11.06 11.06 0 00-4.87-.43s-10.89-8.32-14.15-12.89-18.6-21.38-18.67-21.45L526 322l-.26-2.52a10.24 10.24 0 01-1.31.16q-.13-.37-.33-.87a48.16 48.16 0 00-3.39-7s-.12-3.2.78-4-.87-12.5-.87-12.5-10.37-21.88-18.26-4.94c0 0-15.7 11.37-1.69 23.36 0 0 5.5 2.4 6.34 4.44.55 1.33 2.53 5 3.86 7.46l.59 1.1-.15.13.28 2.08.11.81c-2.49 1.55-4.16 3.05-3.7 4.11a23.92 23.92 0 011.76 5.69s19.6 22.71 22.41 32.62c0 0 51.3 27.88 67.88 29.38l-2.28 15s-.54 9-.2 12.16-1.3 17.75-1.3 17.75-2 21.41-4.34 24.48-1.38 15.83-1.38 15.83a107.23 107.23 0 01-2.6 18.23c-2.11 8.18 0 18.12 0 18.12s-7.62 19.49 11.89 5.73c0 0 9.81-1 21.11-1.81v1.13c0 1.46.06 3 .11 4.7.27 11 .79 26.11 1.72 37.53 1.66 20.19 9.36 60 9.36 60l.77 20.11a27.34 27.34 0 00-.35 5.77 37.36 37.36 0 006.19 19.92l2.06 13.36s4 8.69 4.22 14a7.35 7.35 0 01-.1 1.29 9.22 9.22 0 00-.1 2.06c0 6.1 4.26 20.53 4.26 20.53s.79 14.68 3 15.45c1.91.66-2.19 8.56-3.41 10.84 0-.14-.07-.28-.1-.42l-.25.45a10.32 10.32 0 00-.55 3.74 5.35 5.35 0 002.64 5.07c4.28 2.4 6.61 4.44 3.09 5.43a38.39 38.39 0 00-3.84 1l-.2-.48a2.34 2.34 0 00-1.27 2.52c-.06 1.07.36 2.63 1.5 4.93 3.82 7.74 6.38 10.63 6.38 10.63l1.68-.26a8.41 8.41 0 01-.91 1.86 7 7 0 01-2.4 2.3 7.66 7.66 0 01-3 1.15 8.47 8.47 0 00-6.12 3.27c-2.08 2.92-3.31 6.84 1.16 10.07l15.94 4.82s27.19 2.48 25.52-3.54-2.74-11.3-2.74-11.3a24.13 24.13 0 00-2.61-10.68 12.19 12.19 0 00-1-1.55l.95-.15s1.47-13.49 4-16.14c.58-.62.7-1.07.55-1.42.24-.74-.46-1.14-1.36-1.35-.06.18-.12.35-.17.54A12.65 12.65 0 00683 764s-1.15-7 1.61-9.66a2.67 2.67 0 00.47-2.11 11.38 11.38 0 00-.4-2.85s-.06.11-.1.17c-1.69-6.32-6.95-16.27-6.95-16.27s-.46-6.38 1.2-9-1.56-34.7-1.56-34.7.06-15.57-2.2-22.73 1.77-15.85 1.77-15.85 0-.17-.07-.46a.49.49 0 00.05-.11s-.13-1-.35-2.44v.15c-.6-4.1-1.73-11.52-2.48-14.94-1.07-4.86-.87-28.33-.87-28.33l3.58-10.16 7.7 17 8.36 22.71s3.9 4.71 4.17 9.63v2.26a13.69 13.69 0 002.6 8.11s2.4 10.78 5.58 13.43 3.4 8 3.4 8 4.34 15.61 6.21 18.31c1.57 2.28 1.9 8.69 2 10.65v.57s.74 5.61.9 10.35v1.56a16.65 16.65 0 01-.31 3.85c0 .06 0 .14-.06.22v-.8a40.35 40.35 0 00-.75 9.86c.12 5.67 1.24 12.34 4.82 16.15 6.2 6.59 9.91 5.59 9.91 5.59s-2.53 8.63-6 10.47a1.78 1.78 0 00-.36.25c0-.16-.08-.33-.11-.49a4.13 4.13 0 00-.91 3.21c-.11 3.76 2.49 9.75 4.84 12.46a7.05 7.05 0 003 1.62 5.07 5.07 0 01-.54.36 10.62 10.62 0 01-1.19.62 5.76 5.76 0 01-1.78.54 8.42 8.42 0 00-6.11 3.27c-2.08 2.91-3.32 6.83 1.15 10.06l15.95 4.82s27.19 2.43 25.52-3.59z" transform="translate(-57.5 -38.62)" fill="url(#b)"/><path d="M604.23 771.18l-15.43-4.8c-4.33-3.24-3.15-7.16-1.13-10.07a8.1 8.1 0 015.91-3.27 7.14 7.14 0 002.87-1.14 6.84 6.84 0 002.33-2.3 11.33 11.33 0 001.51-5.95s16.53-5.54 21.29-.82a12.31 12.31 0 012.14 2.89 24.81 24.81 0 012.55 10.66s1.05 5.28 2.67 11.3-24.71 3.5-24.71 3.5zm74.27-10.37l-15.44-4.84c-4.33-3.24-3.14-7.16-1.13-10.07a8.05 8.05 0 015.91-3.26 5.42 5.42 0 001.72-.54 9.43 9.43 0 001.16-.61c4.17-2.51 3.83-8.25 3.83-8.25s16.53-5.54 21.3-.82a12.17 12.17 0 011.68 2.11c3.06 4.85 3 11.47 3 11.47s1.06 5.29 2.67 11.3-24.7 3.51-24.7 3.51z" fill="#2d293d"/><path d="M621.58 742.79a12.31 12.31 0 012.14 2.89l-24.94 3.87a11.33 11.33 0 001.51-5.95s16.53-5.53 21.29-.81zm75.92-8.26l.18 4.69c-3.64 6.57-22.55 5.89-28.15 2.88a9.43 9.43 0 001.16-.61c4.17-2.51 3.83-8.25 3.83-8.25s16.53-5.54 21.3-.82a12.17 12.17 0 011.68 2.11z" opacity=".1"/><path d="M699.7 714.2a41.78 41.78 0 00-2.73 6.5l.65 16.82c-4 7.19-26.23 5.7-29.36 2s-6.7-13.6-3.36-15.44 5.78-10.45 5.78-10.45-3.59 1-9.6-5.6-4.89-21.78-4-25.44-.62-15.76-.62-15.76-.11-8.52-1.92-11.22-6-18.32-6-18.32-.2-5.33-3.29-8-5.42-13.44-5.42-13.44a14 14 0 01-2.48-9.07c.43-5.35-4.05-10.94-4.05-10.94l-8.12-22.71-7.48-17-3.45 10.16s-.16 23.46.88 28.32 2.82 17.81 2.82 17.81-3.94 8.68-1.74 15.84 2.15 22.74 2.15 22.74 3.16 32.08 1.55 34.7-1.14 9-1.14 9 9.45 18.4 6.78 21.06-1.55 9.65-1.55 9.65 6-.23 3.5 2.43-3.85 16.14-3.85 16.14l-25.63 4s-2.48-2.89-6.19-10.64.37-7.05 3.76-8 1.15-3-3-5.43-2-8.24-2-8.24 5.77-10.67 3.61-11.44-2.94-15.45-2.94-15.45-4.93-17.3-4-22-4-15.84-4-15.84l-2-13.36c-8.26-12.97-5.76-25.2-5.76-25.2l-.8-20.66s-7.5-39.8-9.13-60c-1-12.94-1.57-30.62-1.81-41.66-.14-6.2-.19-10.3-.19-10.3l91.62-13.12s.07 4.25 2.19 13.6c1.13 5 2.86 11.5 5.48 19.59 7.5 23.16 4.13 40.78 4.13 40.78l.29 29.63s8.85 19.49 7.41 26.37a56.78 56.78 0 00-1.19 12.4s19.76 42.53 18.33 55.17 7.2 32.13 7.2 32.13 2.65 13.97.67 17.89z" fill="#575988"/><path d="M642.84 605.29l27.86-4.81s-15.2 16.8-27.86 4.81z" opacity=".05"/><path d="M665.6 573.28s1.34 9.86-4.59 13.82c0 0 10.8-2.12 4.59-13.82zm-2.93-31.45S640 562 631.43 560.73s31.24-18.9 31.24-18.9zm-54.17 73.84s-17.64 4.71-17.9 11.88 17.9-11.88 17.9-11.88z" opacity=".1"/><path d="M615.81 704.31s-24.94 5.65-17.69 8.57 19.07 5 19.07 5 8.1.14-1.38-13.57zm-22.57 13.83a5 5 0 01-2.43-3.55l-.24.46s-2.13 5.84 2 8.24c.48.27.92.54 1.35.81.73-.17 1.54-.3 2.3-.53 3.42-.98 1.17-3.03-2.98-5.43zm32.26-2.94c.67-.67.58-2.3.08-4.39-1.07 1.7-1.25 4.27-1.19 6.22a4.89 4.89 0 011.11-1.83zm-7.9-105.82a29 29 0 00-1.4 7.89 31.11 31.11 0 011.74-5.46s-.13-.91-.34-2.43zm57.09-13.36a10 10 0 00.15-2.34 58.16 58.16 0 00-.53 4.39c.11-.69.24-1.35.38-2.05zm-54.78 89.11c.32-.53.45-2.3.45-4.75a16.13 16.13 0 00-1 6 5.71 5.71 0 01.55-1.25zm6.82 39.95c-1.57 4.86-2.43 13.19-2.43 13.19l-25.63 4s-2.48-2.89-6.17-10.66c-.32-.68-.59-1.29-.8-1.85-1.51.77-2.06 2.39.15 7 3.71 7.75 6.18 10.64 6.18 10.64l25.63-4s1.4-13.49 3.86-16.15c1.19-1.28.36-1.87-.79-2.17zm-35.49-36.93s.78 14.69 2.94 15.46c1-2.48 1.61-4.81.64-5.15-2.16-.77-2.94-15.46-2.94-15.46s-4.93-17.29-4-22-4-15.84-4-15.84l-2-13.35c-8.17-12.91-5.66-25.16-5.66-25.16l-.8-20.65s-7.5-39.8-9.13-60c-1-12.93-1.57-30.62-1.81-41.66 0-2-.08-3.76-.11-5.25l-.73.1s0 4.1.18 10.3c.25 11 .77 28.72 1.82 41.65 1.63 20.2 9.13 60 9.13 60l.73 20.64s-2.51 12.25 5.66 25.16l2 13.36s4.91 11.11 4 15.83 4.08 22.02 4.08 22.02zm77.67 45.63a24.66 24.66 0 01-4.47-9.95c-2.54 2.47.84 11.56 3.81 15.1 3.13 3.72 25.36 5.21 29.35-2l-.16-4.06c-5.53 5.95-25.58 4.43-28.53.91zm31.43-25.3a41.78 41.78 0 00-2.73 6.5l.11 3c.44-1.11 1.08-2.59 2-4.35a13 13 0 00.73-5.31c-.06.06-.08.11-.11.16zm-30.92 4.55a42.06 42.06 0 001.9-5.14s-3.59 1-9.6-5.6c-4.37-4.8-5-14.15-4.61-20.29-.93 3.66-2.05 18.84 4 25.43 3.89 4.31 6.78 5.38 8.31 5.6zm-12.92-46.79a116.39 116.39 0 01.91 12.6 16.38 16.38 0 01.36-2c.93-3.66-.62-15.75-.62-15.75s-.11-8.53-1.92-11.23-6-18.32-6-18.32-.2-5.32-3.29-8-5.44-13.41-5.44-13.41a13.93 13.93 0 01-2.48-9.07c.43-5.35-4-10.93-4-10.93l-8.19-22.75-7.48-17-3.45 10.2v3.24l2.8-8.25 7.48 17 8.13 22.72s4.48 5.59 4 10.93a14 14 0 002.48 9.08s2.34 10.78 5.42 13.44 3.3 8 3.3 8 4.22 15.62 6 18.32 1.99 11.18 1.99 11.18z" opacity=".05"/><path d="M659.3 273.81l-1.3 7.84.23 3.45.16 2.55-8.84 1.26-1.07-1.8c-2-3.26-6.05-9.89-7.32-10.89-1.7-1.31-5.46-22.81-1.89-21.67a9.34 9.34 0 015.12 4.29s17.53 1.33 14.91 14.97z" fill="#ffcdd3"/><path d="M658.39 287.65l-8.84 1.26-1.07-1.8a7.85 7.85 0 019.75-2z" opacity=".1"/><path d="M660.8 291.78l-11.61 3.16-.32-1.73-.84-4.67s4.4-6.36 11.28-2l.68 2.37z" fill="#dce6f2"/><path d="M470.36 281.93l-12.24 7.2s-.52-1-1.23-2.32c-1.28-2.45-3.2-6.14-3.74-7.46-.82-2-6.14-4.46-6.14-4.46-13.57-12 1.61-23.35 1.61-23.35 7.61-16.93 17.68 5 17.68 5s1.72 11.67.85 12.5-.75 4-.75 4a46.85 46.85 0 013.29 7c.44 1.17.67 1.89.67 1.89z" fill="#ffcdd3"/><path d="M470.36 281.93l-12.24 7.2s-.52-1-1.23-2.32c1.71-1.54 7.77-6.86 9.84-6.71a15.89 15.89 0 003 0c.4 1.11.63 1.83.63 1.83z" opacity=".1"/><path d="M471.78 285.67L458 293.13l-.4-3-.28-2.08s7.88-7.29 10.29-7.12a12.87 12.87 0 003.67-.15l.26 2.53z" fill="#dce6f2"/><path d="M627.22 326.76s-61 9.27-49.7 5.11c7.87-2.9 10.85-8.09 11.29-13.74.36-4.73-1-9.78-2.82-14.09a61 61 0 00-5.91-10.86s45.85-27.57 37.42-3.8a37.34 37.34 0 00-2.23 11.2 31.14 31.14 0 001.63 11.19 33.47 33.47 0 0010.32 14.99z" fill="#ffcdd3"/><path d="M617.5 289.38a37.34 37.34 0 00-2.23 11.2c-4.27 3.88-9.12 3.82-15.33 4.06-4.78.18-10 1.54-13.92-.61a61 61 0 00-5.91-10.86s45.82-27.56 37.39-3.79z" opacity=".1"/><circle cx="598.16" cy="280.96" r="25.36" fill="#ffcdd3"/><path d="M627.22 326.76s-61 9.27-49.7 5.11c7.87-2.9 10.85-8.09 11.29-13.74 2.93-3.42 9-6 12.85-7.46a18.4 18.4 0 0111.1-.61 15.3 15.3 0 014.11 1.72 33.47 33.47 0 0010.35 14.98zm33.58-34.98l-11.61 3.16-.32-1.73a10.37 10.37 0 0111.12-4.29zm-189.02-6.11L458 293.13l-.4-3c4.91-3.16 13.22-6.53 13.94-6.82zM657.4 480.23c-23.58 4.66-57.17 10.84-62.59 9.41-4.5-1.18-18.69-.49-31 .41-.14-6.2-.19-10.3-.19-10.3l91.62-13.12s.04 4.25 2.16 13.6z" opacity=".1"/><path d="M680.86 473.75s-77.63 16.42-86.12 14.19-51.43 2.19-51.43 2.19c-18.88 13.73-11.52-5.74-11.52-5.74s-2.09-9.94-.06-18.12a111 111 0 002.5-18.22s-.92-12.76 1.31-15.83 4.17-24.47 4.17-24.47 1.57-14.57 1.24-17.75.17-12.16.17-12.16l2.19-15c-16-1.52-65.74-29.46-65.74-29.46-2.73-9.92-21.73-32.64-21.73-32.64a24.24 24.24 0 00-1.71-5.69c-1.41-3.36 17.49-10.91 17.49-10.91s14.94 16.91 18.1 21.48 13.72 12.9 13.72 12.9a10.53 10.53 0 014.71.44 1.36 1.36 0 01.25.07 38.36 38.36 0 019.75 5.11c7.64-.72 13.17 4.4 13.17 4.4s8.68-1.61 10.23-.18 8.94-.34 8.94-.34 6.85-16.05 11.92-11.66 25.85 3.38 25.85 3.38c2.63-3.79 9.26-6.69 13.42-8.21a18.4 18.4 0 0111.1-.61 14.37 14.37 0 014.47 2l13.08 11.86s3.44-4.82 3-5.87 4.19-2.08 4.19-2.08 6.1-2.16 8.42-2.88 4.56 1.72 4.75 1.94c-.08-.27-1.88-5.36-1.41-9.32s-2.85-7.57-2.85-7.57c6.75-18.6 24.16-3.91 24.16-3.91s2.3 9.93.74 13.83 2.16 11.86 1.82 14 1.07 5.72 1.23 9.76-1.7 11.7-2.88 15.19-11 11.51-11 11.51-.17 12.16-4.37 19.35-.51 31.16-.51 31.16 5 18.57 10.53 24.33 14.71 39.53 14.71 39.53z" fill="#656691"/><path d="M561.55 338.03s-2.61-6.94-4.77-7.49a50.66 50.66 0 01-6.28-2.53l1.27-2.68s8.09 1.89 9.45 4.18.33 8.52.33 8.52zm-43.39-13.9c-.35 2.15-19.22 4.79-19.22 4.79l9.21-10 .24.08a38.36 38.36 0 019.77 5.13z" opacity=".1"/><circle cx="462.2" cy="297.02" r="1.7" fill="#575988"/><circle cx="464.51" cy="300.34" r="1.7" fill="#575988"/><circle cx="466.76" cy="303.4" r="1.7" fill="#575988"/><circle cx="469.13" cy="306.72" r="1.7" fill="#575988"/><circle cx="669.83" cy="298.81" r="1.39" fill="#575988"/><circle cx="670.16" cy="301.94" r="1.39" fill="#575988"/><circle cx="670.47" cy="305.07" r="1.39" fill="#575988"/><path d="M563.88 395.73c-.21-.25 50.12 58.52 86 22.06.04 0-58.53 10.25-86-22.06zM537.5 428.3s28.75-.32 32.07 7.82l.33 8.6a5.48 5.48 0 01-5.34.21c-3-1.46-20.66-9.61-26.62-5.13z" opacity=".1"/><path d="M538.05 428.28s27.5-.31 30.67 7.46l.32 8.19a5.27 5.27 0 01-5.11.2c-2.83-1.38-19.76-9.16-25.46-4.88z" fill="#656691"/><path d="M550.79 365.38a92.63 92.63 0 0011.88 18.67 74.82 74.82 0 0018.09 16.18s-29.33-30.97-29.97-34.85zm-10.68-33.06s5.59 20.5 18.21 27.05zm-7.26 2.37c-.14-.38-3.63 16.52 16.9 25 0 .01-8.68-2.57-16.9-25zm124.88-18.7c-.32 0 10.21 6.16 13.11 9.09 0 0-7.06-9.7-13.11-9.09z" opacity=".1"/><path d="M592.2 304.2c.41 1.29.91 2.7 2.11 3.34a5.16 5.16 0 002.41.44c7.74.19 15.79.22 22.82-3a8.62 8.62 0 003.4-2.45c1.21-1.6 1.37-3.72 1.81-5.68.85-3.82 2.86-7.28 4.26-10.94a36.12 36.12 0 001.76-19.42 13 13 0 00-2.15-5.58c-2.16-2.85-5.94-3.89-8.74-6.11s-4.68-5.72-7.91-7.35c-2.91-1.47-6.39-1.15-9.58-.48a50.22 50.22 0 00-17.59 7.41c-1.79 1.19-3.75 2.57-5.88 2.25-1.87-.27-3.27-1.78-4.52-3.19a23.65 23.65 0 00-1.47 11.11 4.93 4.93 0 010 1.67 5.06 5.06 0 01-1.11 1.8c-1.82 2.29-2.88 5.83-.91 8 .86.94 2.14 1.42 3 2.38 1.5 1.73 1.12 4.31 1.17 6.59a3.37 3.37 0 00.65 2.22 3.28 3.28 0 003.15.63 8.47 8.47 0 013.32-.45 5.49 5.49 0 013 2.12c3.71 4.35 5.3 9.28 7 14.69z" fill="#2d293d"/><path d="M623.71 300.52a8.56 8.56 0 01-3.39 2.44c-7 3.25-15.08 3.22-22.83 3a5.33 5.33 0 01-2.41-.44c-1.19-.64-1.7-2.06-2.11-3.35-1.7-5.4-3.29-10.34-7-14.74a5.54 5.54 0 00-3-2.11 8.63 8.63 0 00-3.32.44 3.3 3.3 0 01-3.16-.62 3.46 3.46 0 01-.65-2.23c-.05-2.28.33-4.86-1.16-6.58-.84-1-2.12-1.44-3-2.39a5 5 0 01-.68-5.06c-1.27 2.2-1.75 5-.1 6.8.85.94 2.14 1.42 3 2.39 1.5 1.72 1.12 4.3 1.17 6.58a3.37 3.37 0 00.65 2.22 3.28 3.28 0 003.15.63 8.66 8.66 0 013.32-.45 5.49 5.49 0 013 2.12c3.75 4.4 5.33 9.33 7 14.74.41 1.29.91 2.7 2.11 3.35a5.28 5.28 0 002.41.44c7.74.18 15.79.21 22.82-3a8.7 8.7 0 003.4-2.44 7.05 7.05 0 001-2.1c-.06.12-.13.22-.22.36zm-50.72-35.03a3.59 3.59 0 00.72-1.31 4.63 4.63 0 000-1.66 23.48 23.48 0 01.83-9.21l-.15-.17a23.66 23.66 0 00-1.47 11.11 6.5 6.5 0 01.07 1.24zm15.28 54.24s31.81 3 34.48-1.89m26.55-13.58s17.59-.65 21.71 5.79" opacity=".1"/><path d="M1033.91 638.38s5.93 7.75-2.74 19.46-15.81 21.59-12.92 28.89c0 0 13.08-21.74 23.72-22.05s3.65-13.24-8.06-26.3z" fill="#5369f8"/><path d="M1033.91 638.38a9.21 9.21 0 011.21 2.43c10.39 12.2 15.92 23.59 5.94 23.87-9.3.27-20.46 16.9-23.13 21.09a9.82 9.82 0 00.32 1s13.08-21.74 23.72-22.05 3.65-13.28-8.06-26.34z" opacity=".1"/><path d="M1044.94 648.25c0 2.73-.31 4.94-.69 4.94s-.68-2.21-.68-4.94.38-1.44.76-1.44.61-1.29.61 1.44z" fill="#ffd037"/><path d="M1048.72 651.51c-2.4 1.3-4.49 2.09-4.67 1.76s1.62-1.66 4-3 1.45-.36 1.64 0 1.42-.07-.97 1.24z" fill="#ffd037"/><path d="M1002.59 638.38s-5.93 7.75 2.73 19.46 15.82 21.59 12.93 28.89c0 0-13.08-21.74-23.72-22.05s-3.65-13.24 8.06-26.3z" fill="#5369f8"/><path d="M1002.59 638.38a9.21 9.21 0 00-1.21 2.43c-10.39 12.2-15.92 23.59-5.94 23.87 9.3.27 20.45 16.9 23.13 21.09a9.82 9.82 0 01-.32 1s-13.08-21.74-23.72-22.05-3.65-13.28 8.06-26.34z" opacity=".1"/><path d="M991.56 648.25c0 2.73.31 4.94.69 4.94s.68-2.21.68-4.94-.38-1.44-.76-1.44-.61-1.29-.61 1.44z" fill="#ffd037"/><path d="M987.78 651.51c2.4 1.3 4.49 2.09 4.67 1.76s-1.62-1.66-4-3-1.46-.36-1.64 0-1.43-.07.97 1.24z" fill="#ffd037"/><ellipse cx="1018.24" cy="736.53" rx="62" ry="9.51" fill="#5369f8" opacity=".1"/><path d="M1050.16 676.27l-.3 2.42-.41 3.42-.17 1.43-.42 3.42-.18 1.43-.42 3.41-4.74 38.9c-.43 3.47-6.1 6.18-12.94 6.18h-24.66c-6.85 0-12.51-2.71-12.93-6.18l-4.76-38.9-.41-3.41-.17-1.43-.43-3.42-.17-1.43-.42-3.42-.29-2.42c-.24-2 2.83-3.62 6.7-3.62h50.46c3.83 0 6.91 1.65 6.66 3.62z" fill="#65617d"/><path fill="#9d9cb5" d="M1049.86 678.69l-.42 3.42h-62.4l-.41-3.42h63.23zm-.59 4.84l-.41 3.43h-61.22l-.42-3.43h62.05zm-.6 4.85l-.41 3.42h-60.03l-.42-3.42h60.86z"/></svg>